<mxfile host="65bd71144e">
    <diagram id="C5RBs43oDa-KdzZeNtuy" name="Page-1">
        <mxGraphModel dx="1587" dy="736" grid="0" gridSize="10" guides="1" tooltips="1" connect="1" arrows="1" fold="1" page="1" pageScale="1" pageWidth="827" pageHeight="1169" background="none" math="0" shadow="0">
            <root>
                <mxCell id="WIyWlLk6GJQsqaUBKTNV-0"/>
                <mxCell id="WIyWlLk6GJQsqaUBKTNV-1" parent="WIyWlLk6GJQsqaUBKTNV-0"/>
                <mxCell id="32K8P8o3c46-vZ3ChS1r-31" value="" style="edgeStyle=orthogonalEdgeStyle;rounded=0;orthogonalLoop=1;jettySize=auto;html=1;" parent="WIyWlLk6GJQsqaUBKTNV-1" source="32K8P8o3c46-vZ3ChS1r-0" target="32K8P8o3c46-vZ3ChS1r-20" edge="1">
                    <mxGeometry relative="1" as="geometry"/>
                </mxCell>
                <mxCell id="32K8P8o3c46-vZ3ChS1r-0" value="input: Jenis Kendaraan" style="shape=parallelogram;perimeter=parallelogramPerimeter;whiteSpace=wrap;html=1;fixedSize=1;fontStyle=1" parent="WIyWlLk6GJQsqaUBKTNV-1" vertex="1">
                    <mxGeometry x="205" y="519" width="120" height="60" as="geometry"/>
                </mxCell>
                <mxCell id="32K8P8o3c46-vZ3ChS1r-11" value="" style="edgeStyle=orthogonalEdgeStyle;rounded=0;orthogonalLoop=1;jettySize=auto;html=1;" parent="WIyWlLk6GJQsqaUBKTNV-1" source="32K8P8o3c46-vZ3ChS1r-2" target="32K8P8o3c46-vZ3ChS1r-6" edge="1">
                    <mxGeometry relative="1" as="geometry"/>
                </mxCell>
                <mxCell id="32K8P8o3c46-vZ3ChS1r-2" value="&lt;b&gt;MULAI&lt;/b&gt;" style="rounded=1;whiteSpace=wrap;html=1;arcSize=37;" parent="WIyWlLk6GJQsqaUBKTNV-1" vertex="1">
                    <mxGeometry x="205" y="30" width="120" height="34" as="geometry"/>
                </mxCell>
                <mxCell id="13" value="" style="edgeStyle=none;html=1;" parent="WIyWlLk6GJQsqaUBKTNV-1" source="32K8P8o3c46-vZ3ChS1r-6" target="32K8P8o3c46-vZ3ChS1r-12" edge="1">
                    <mxGeometry relative="1" as="geometry"/>
                </mxCell>
                <mxCell id="32K8P8o3c46-vZ3ChS1r-6" value="int MOTOR_TARIF = Rp 100.000;&lt;div&gt;int MOBIL_TARIF = Rp 200.000;&lt;/div&gt;" style="shape=hexagon;perimeter=hexagonPerimeter2;whiteSpace=wrap;html=1;fixedSize=1;fontStyle=1" parent="WIyWlLk6GJQsqaUBKTNV-1" vertex="1">
                    <mxGeometry x="155" y="159" width="220" height="60" as="geometry"/>
                </mxCell>
                <mxCell id="32K8P8o3c46-vZ3ChS1r-10" value="Deklarasi Variabel Tarif Dasar kendaraan" style="text;html=1;align=center;verticalAlign=middle;whiteSpace=wrap;rounded=0;labelBackgroundColor=default;" parent="WIyWlLk6GJQsqaUBKTNV-1" vertex="1">
                    <mxGeometry x="203" y="98" width="124" height="30" as="geometry"/>
                </mxCell>
                <mxCell id="32K8P8o3c46-vZ3ChS1r-30" value="" style="edgeStyle=orthogonalEdgeStyle;rounded=0;orthogonalLoop=1;jettySize=auto;html=1;entryX=0.5;entryY=0;entryDx=0;entryDy=0;" parent="WIyWlLk6GJQsqaUBKTNV-1" source="32K8P8o3c46-vZ3ChS1r-12" target="32K8P8o3c46-vZ3ChS1r-55" edge="1">
                    <mxGeometry relative="1" as="geometry"/>
                </mxCell>
                <mxCell id="32K8P8o3c46-vZ3ChS1r-12" value="int USIA_KENDARAAN_TUA = Rp 50.000&lt;br&gt;int USIA_PENGEMUDI_MUDA = Rp. 100.000;&lt;div&gt;int&amp;nbsp;RIWAYAT_KECELAKAAN = Rp. 150.000;&lt;/div&gt;" style="shape=hexagon;perimeter=hexagonPerimeter2;whiteSpace=wrap;html=1;fixedSize=1;fontStyle=1;fontFamily=Helvetica;" parent="WIyWlLk6GJQsqaUBKTNV-1" vertex="1">
                    <mxGeometry x="114" y="308" width="302" height="60" as="geometry"/>
                </mxCell>
                <mxCell id="32K8P8o3c46-vZ3ChS1r-33" value="" style="edgeStyle=orthogonalEdgeStyle;rounded=0;orthogonalLoop=1;jettySize=auto;html=1;" parent="WIyWlLk6GJQsqaUBKTNV-1" source="32K8P8o3c46-vZ3ChS1r-20" target="32K8P8o3c46-vZ3ChS1r-32" edge="1">
                    <mxGeometry relative="1" as="geometry"/>
                </mxCell>
                <mxCell id="32K8P8o3c46-vZ3ChS1r-43" value="Motor" style="edgeLabel;html=1;align=center;verticalAlign=middle;resizable=0;points=[];" parent="32K8P8o3c46-vZ3ChS1r-33" connectable="0" vertex="1">
                    <mxGeometry x="0.2061" y="-1" relative="1" as="geometry">
                        <mxPoint x="11" y="1" as="offset"/>
                    </mxGeometry>
                </mxCell>
                <mxCell id="32K8P8o3c46-vZ3ChS1r-37" value="" style="edgeStyle=orthogonalEdgeStyle;rounded=0;orthogonalLoop=1;jettySize=auto;html=1;" parent="WIyWlLk6GJQsqaUBKTNV-1" source="32K8P8o3c46-vZ3ChS1r-20" target="32K8P8o3c46-vZ3ChS1r-34" edge="1">
                    <mxGeometry relative="1" as="geometry"/>
                </mxCell>
                <mxCell id="32K8P8o3c46-vZ3ChS1r-42" value="Mobil" style="edgeLabel;html=1;align=center;verticalAlign=middle;resizable=0;points=[];" parent="32K8P8o3c46-vZ3ChS1r-37" connectable="0" vertex="1">
                    <mxGeometry x="-0.2715" y="2" relative="1" as="geometry">
                        <mxPoint x="18" as="offset"/>
                    </mxGeometry>
                </mxCell>
                <mxCell id="32K8P8o3c46-vZ3ChS1r-20" value="&lt;b&gt;Jenis&amp;nbsp;&lt;/b&gt;&lt;div&gt;&lt;b&gt;Kendaraan&lt;/b&gt;&lt;/div&gt;&lt;div&gt;&lt;b&gt;&lt;br&gt;&lt;/b&gt;&lt;/div&gt;" style="rhombus;whiteSpace=wrap;html=1;" parent="WIyWlLk6GJQsqaUBKTNV-1" vertex="1">
                    <mxGeometry x="602" y="499" width="100" height="100" as="geometry"/>
                </mxCell>
                <mxCell id="32K8P8o3c46-vZ3ChS1r-21" value="Deklarasi Variabel&lt;div&gt;Profil Pengemudi &amp;amp; Kendaraan&lt;/div&gt;" style="text;html=1;align=center;verticalAlign=middle;whiteSpace=wrap;rounded=0;labelBackgroundColor=default;" parent="WIyWlLk6GJQsqaUBKTNV-1" vertex="1">
                    <mxGeometry x="203" y="246" width="124" height="30" as="geometry"/>
                </mxCell>
                <mxCell id="32K8P8o3c46-vZ3ChS1r-61" value="" style="edgeStyle=orthogonalEdgeStyle;rounded=0;orthogonalLoop=1;jettySize=auto;html=1;" parent="WIyWlLk6GJQsqaUBKTNV-1" source="32K8P8o3c46-vZ3ChS1r-32" target="32K8P8o3c46-vZ3ChS1r-39" edge="1">
                    <mxGeometry relative="1" as="geometry"/>
                </mxCell>
                <mxCell id="32K8P8o3c46-vZ3ChS1r-32" value="totalTarif += MOTOR_TARIF;" style="rounded=0;whiteSpace=wrap;html=1;fontStyle=1" parent="WIyWlLk6GJQsqaUBKTNV-1" vertex="1">
                    <mxGeometry x="492" y="671" width="120" height="32" as="geometry"/>
                </mxCell>
                <mxCell id="32K8P8o3c46-vZ3ChS1r-63" value="" style="edgeStyle=orthogonalEdgeStyle;rounded=0;orthogonalLoop=1;jettySize=auto;html=1;" parent="WIyWlLk6GJQsqaUBKTNV-1" source="32K8P8o3c46-vZ3ChS1r-34" target="32K8P8o3c46-vZ3ChS1r-39" edge="1">
                    <mxGeometry relative="1" as="geometry"/>
                </mxCell>
                <mxCell id="32K8P8o3c46-vZ3ChS1r-34" value="totalTarif += Mobil;" style="rounded=0;whiteSpace=wrap;html=1;fontStyle=1" parent="WIyWlLk6GJQsqaUBKTNV-1" vertex="1">
                    <mxGeometry x="685" y="671" width="120" height="32" as="geometry"/>
                </mxCell>
                <mxCell id="32K8P8o3c46-vZ3ChS1r-65" value="" style="edgeStyle=orthogonalEdgeStyle;rounded=0;orthogonalLoop=1;jettySize=auto;html=1;" parent="WIyWlLk6GJQsqaUBKTNV-1" source="32K8P8o3c46-vZ3ChS1r-38" target="32K8P8o3c46-vZ3ChS1r-64" edge="1">
                    <mxGeometry relative="1" as="geometry"/>
                </mxCell>
                <mxCell id="32K8P8o3c46-vZ3ChS1r-66" value="Jika Lebih dari 10 Tahun" style="edgeLabel;html=1;align=center;verticalAlign=middle;resizable=0;points=[];labelPosition=center;verticalLabelPosition=middle;" parent="32K8P8o3c46-vZ3ChS1r-65" connectable="0" vertex="1">
                    <mxGeometry x="0.0117" y="-4" relative="1" as="geometry">
                        <mxPoint x="24" as="offset"/>
                    </mxGeometry>
                </mxCell>
                <mxCell id="32K8P8o3c46-vZ3ChS1r-68" value="" style="edgeStyle=orthogonalEdgeStyle;rounded=0;orthogonalLoop=1;jettySize=auto;html=1;" parent="WIyWlLk6GJQsqaUBKTNV-1" source="32K8P8o3c46-vZ3ChS1r-38" target="32K8P8o3c46-vZ3ChS1r-67" edge="1">
                    <mxGeometry relative="1" as="geometry"/>
                </mxCell>
                <mxCell id="32K8P8o3c46-vZ3ChS1r-69" value="Jika Kurang dari 10 Tahun" style="edgeLabel;html=1;align=center;verticalAlign=middle;resizable=0;points=[];" parent="32K8P8o3c46-vZ3ChS1r-68" connectable="0" vertex="1">
                    <mxGeometry x="-0.1026" y="-3" relative="1" as="geometry">
                        <mxPoint as="offset"/>
                    </mxGeometry>
                </mxCell>
                <mxCell id="32K8P8o3c46-vZ3ChS1r-38" value="&lt;div&gt;&lt;b&gt;Tahun Pembuatan &amp;gt;&lt;/b&gt;&lt;/div&gt;&lt;div&gt;&lt;b&gt;&amp;nbsp;10 Tahun&lt;/b&gt;&lt;/div&gt;" style="rhombus;whiteSpace=wrap;html=1;" parent="WIyWlLk6GJQsqaUBKTNV-1" vertex="1">
                    <mxGeometry x="349.5" y="762" width="100" height="100" as="geometry"/>
                </mxCell>
                <mxCell id="32K8P8o3c46-vZ3ChS1r-53" value="" style="edgeStyle=orthogonalEdgeStyle;rounded=0;orthogonalLoop=1;jettySize=auto;html=1;" parent="WIyWlLk6GJQsqaUBKTNV-1" source="32K8P8o3c46-vZ3ChS1r-39" target="32K8P8o3c46-vZ3ChS1r-38" edge="1">
                    <mxGeometry relative="1" as="geometry"/>
                </mxCell>
                <mxCell id="32K8P8o3c46-vZ3ChS1r-39" value="&lt;span style=&quot;font-weight: 700;&quot;&gt;input: Tahun Pembuatan Kendaraan&lt;/span&gt;" style="shape=parallelogram;perimeter=parallelogramPerimeter;whiteSpace=wrap;html=1;fixedSize=1;" parent="WIyWlLk6GJQsqaUBKTNV-1" vertex="1">
                    <mxGeometry x="592" y="782" width="120" height="60" as="geometry"/>
                </mxCell>
                <mxCell id="32K8P8o3c46-vZ3ChS1r-49" value="&lt;span style=&quot;font-weight: 700;&quot;&gt;Output:&amp;nbsp;&lt;/span&gt;&lt;div&gt;&lt;b&gt;totalTarif&lt;/b&gt;&lt;/div&gt;" style="shape=parallelogram;perimeter=parallelogramPerimeter;whiteSpace=wrap;html=1;fixedSize=1;" parent="WIyWlLk6GJQsqaUBKTNV-1" vertex="1">
                    <mxGeometry x="631.5" y="1621" width="120" height="60" as="geometry"/>
                </mxCell>
                <mxCell id="32K8P8o3c46-vZ3ChS1r-54" value="Deklarasi Variabel&lt;div&gt;Total Tarif&lt;/div&gt;" style="text;html=1;align=center;verticalAlign=middle;whiteSpace=wrap;rounded=0;labelBackgroundColor=default;" parent="WIyWlLk6GJQsqaUBKTNV-1" vertex="1">
                    <mxGeometry x="203" y="395" width="124" height="30" as="geometry"/>
                </mxCell>
                <mxCell id="32K8P8o3c46-vZ3ChS1r-60" value="" style="edgeStyle=orthogonalEdgeStyle;rounded=0;orthogonalLoop=1;jettySize=auto;html=1;" parent="WIyWlLk6GJQsqaUBKTNV-1" source="32K8P8o3c46-vZ3ChS1r-55" target="32K8P8o3c46-vZ3ChS1r-0" edge="1">
                    <mxGeometry relative="1" as="geometry"/>
                </mxCell>
                <mxCell id="32K8P8o3c46-vZ3ChS1r-55" value="int totalTarif;" style="shape=hexagon;perimeter=hexagonPerimeter2;whiteSpace=wrap;html=1;fixedSize=1;fontStyle=1;fontFamily=Helvetica;" parent="WIyWlLk6GJQsqaUBKTNV-1" vertex="1">
                    <mxGeometry x="211" y="454" width="108" height="30" as="geometry"/>
                </mxCell>
                <mxCell id="32K8P8o3c46-vZ3ChS1r-71" value="" style="edgeStyle=orthogonalEdgeStyle;rounded=0;orthogonalLoop=1;jettySize=auto;html=1;" parent="WIyWlLk6GJQsqaUBKTNV-1" source="32K8P8o3c46-vZ3ChS1r-64" target="32K8P8o3c46-vZ3ChS1r-70" edge="1">
                    <mxGeometry relative="1" as="geometry"/>
                </mxCell>
                <mxCell id="32K8P8o3c46-vZ3ChS1r-64" value="totalTarif += USIA_KENDARAAN_TUA;" style="rounded=0;whiteSpace=wrap;html=1;fontStyle=1" parent="WIyWlLk6GJQsqaUBKTNV-1" vertex="1">
                    <mxGeometry x="40" y="874" width="199" height="32" as="geometry"/>
                </mxCell>
                <mxCell id="32K8P8o3c46-vZ3ChS1r-72" value="" style="edgeStyle=orthogonalEdgeStyle;rounded=0;orthogonalLoop=1;jettySize=auto;html=1;" parent="WIyWlLk6GJQsqaUBKTNV-1" source="32K8P8o3c46-vZ3ChS1r-67" target="32K8P8o3c46-vZ3ChS1r-70" edge="1">
                    <mxGeometry relative="1" as="geometry"/>
                </mxCell>
                <mxCell id="32K8P8o3c46-vZ3ChS1r-67" value="Tidak ada Biaya Tambahan" style="rounded=0;whiteSpace=wrap;html=1;fontStyle=1" parent="WIyWlLk6GJQsqaUBKTNV-1" vertex="1">
                    <mxGeometry x="300" y="987" width="199" height="32" as="geometry"/>
                </mxCell>
                <mxCell id="32K8P8o3c46-vZ3ChS1r-74" value="" style="edgeStyle=orthogonalEdgeStyle;rounded=0;orthogonalLoop=1;jettySize=auto;html=1;" parent="WIyWlLk6GJQsqaUBKTNV-1" source="32K8P8o3c46-vZ3ChS1r-70" target="32K8P8o3c46-vZ3ChS1r-73" edge="1">
                    <mxGeometry relative="1" as="geometry"/>
                </mxCell>
                <mxCell id="32K8P8o3c46-vZ3ChS1r-70" value="&lt;span style=&quot;font-weight: 700;&quot;&gt;input: Usia Pengemudi&lt;/span&gt;" style="shape=parallelogram;perimeter=parallelogramPerimeter;whiteSpace=wrap;html=1;fixedSize=1;" parent="WIyWlLk6GJQsqaUBKTNV-1" vertex="1">
                    <mxGeometry x="79.5" y="973" width="120" height="60" as="geometry"/>
                </mxCell>
                <mxCell id="32K8P8o3c46-vZ3ChS1r-79" value="" style="edgeStyle=orthogonalEdgeStyle;rounded=0;orthogonalLoop=1;jettySize=auto;html=1;" parent="WIyWlLk6GJQsqaUBKTNV-1" source="32K8P8o3c46-vZ3ChS1r-73" target="32K8P8o3c46-vZ3ChS1r-77" edge="1">
                    <mxGeometry relative="1" as="geometry"/>
                </mxCell>
                <mxCell id="14" value="Jika Usia Kurang dari 25 Tahun" style="edgeLabel;html=1;align=center;verticalAlign=middle;resizable=0;points=[];" parent="32K8P8o3c46-vZ3ChS1r-79" vertex="1" connectable="0">
                    <mxGeometry x="-0.2352" y="2" relative="1" as="geometry">
                        <mxPoint as="offset"/>
                    </mxGeometry>
                </mxCell>
                <mxCell id="32K8P8o3c46-vZ3ChS1r-82" value="" style="edgeStyle=orthogonalEdgeStyle;rounded=0;orthogonalLoop=1;jettySize=auto;html=1;" parent="WIyWlLk6GJQsqaUBKTNV-1" source="32K8P8o3c46-vZ3ChS1r-73" target="32K8P8o3c46-vZ3ChS1r-80" edge="1">
                    <mxGeometry relative="1" as="geometry"/>
                </mxCell>
                <mxCell id="15" value="Jika Usia &lt;br style=&quot;font-size: 10px;&quot;&gt;Diatas 25 Tahun" style="edgeLabel;html=1;align=center;verticalAlign=bottom;resizable=0;points=[];fontStyle=0" parent="32K8P8o3c46-vZ3ChS1r-82" vertex="1" connectable="0">
                    <mxGeometry x="-0.2514" y="-2" relative="1" as="geometry">
                        <mxPoint x="8" y="-2" as="offset"/>
                    </mxGeometry>
                </mxCell>
                <mxCell id="32K8P8o3c46-vZ3ChS1r-73" value="&lt;div&gt;&lt;b&gt;Cek Apakah Usia Pengemudi &amp;lt; 25 Tahun&lt;/b&gt;&lt;/div&gt;&lt;div&gt;&lt;b&gt;&lt;br&gt;&lt;/b&gt;&lt;/div&gt;" style="rhombus;whiteSpace=wrap;html=1;" parent="WIyWlLk6GJQsqaUBKTNV-1" vertex="1">
                    <mxGeometry x="72" y="1101" width="135" height="135" as="geometry"/>
                </mxCell>
                <mxCell id="1" value="" style="edgeStyle=none;html=1;" parent="WIyWlLk6GJQsqaUBKTNV-1" source="32K8P8o3c46-vZ3ChS1r-77" target="32K8P8o3c46-vZ3ChS1r-83" edge="1">
                    <mxGeometry relative="1" as="geometry"/>
                </mxCell>
                <mxCell id="32K8P8o3c46-vZ3ChS1r-77" value="totalTarif += USIA_PENGEMUDI_MUDA;" style="rounded=0;whiteSpace=wrap;html=1;fontStyle=1" parent="WIyWlLk6GJQsqaUBKTNV-1" vertex="1">
                    <mxGeometry x="40" y="1315" width="199" height="32" as="geometry"/>
                </mxCell>
                <mxCell id="0" value="" style="edgeStyle=none;html=1;" parent="WIyWlLk6GJQsqaUBKTNV-1" source="32K8P8o3c46-vZ3ChS1r-80" target="32K8P8o3c46-vZ3ChS1r-83" edge="1">
                    <mxGeometry relative="1" as="geometry"/>
                </mxCell>
                <mxCell id="32K8P8o3c46-vZ3ChS1r-80" value="Tidak ada Biaya Tambahan" style="rounded=0;whiteSpace=wrap;html=1;fontStyle=1" parent="WIyWlLk6GJQsqaUBKTNV-1" vertex="1">
                    <mxGeometry x="300" y="1152.5" width="199" height="32" as="geometry"/>
                </mxCell>
                <mxCell id="5" value="" style="edgeStyle=none;html=1;" parent="WIyWlLk6GJQsqaUBKTNV-1" source="32K8P8o3c46-vZ3ChS1r-83" target="2" edge="1">
                    <mxGeometry relative="1" as="geometry"/>
                </mxCell>
                <mxCell id="32K8P8o3c46-vZ3ChS1r-83" value="&lt;span style=&quot;font-weight: 700;&quot;&gt;input: Riwayat Kecelakaan&lt;/span&gt;" style="shape=parallelogram;perimeter=parallelogramPerimeter;whiteSpace=wrap;html=1;fixedSize=1;" parent="WIyWlLk6GJQsqaUBKTNV-1" vertex="1">
                    <mxGeometry x="339.5" y="1301" width="120" height="60" as="geometry"/>
                </mxCell>
                <mxCell id="6" value="" style="edgeStyle=none;html=1;" parent="WIyWlLk6GJQsqaUBKTNV-1" source="2" target="4" edge="1">
                    <mxGeometry relative="1" as="geometry"/>
                </mxCell>
                <mxCell id="12" value="" style="edgeStyle=none;html=1;" parent="WIyWlLk6GJQsqaUBKTNV-1" source="2" target="9" edge="1">
                    <mxGeometry relative="1" as="geometry"/>
                </mxCell>
                <mxCell id="2" value="&lt;div style=&quot;&quot;&gt;&lt;b&gt;Cek Riwayat Kecelakaan (ya/tidak)&lt;/b&gt;&lt;/div&gt;&lt;div style=&quot;&quot;&gt;&lt;b&gt;&lt;br&gt;&lt;/b&gt;&lt;/div&gt;" style="rhombus;whiteSpace=wrap;html=1;" parent="WIyWlLk6GJQsqaUBKTNV-1" vertex="1">
                    <mxGeometry x="332" y="1444" width="135" height="135" as="geometry"/>
                </mxCell>
                <mxCell id="10" value="" style="edgeStyle=none;html=1;" parent="WIyWlLk6GJQsqaUBKTNV-1" source="4" target="32K8P8o3c46-vZ3ChS1r-49" edge="1">
                    <mxGeometry relative="1" as="geometry"/>
                </mxCell>
                <mxCell id="4" value="totalTarif += RIWAYAT_KECELAKAAN;" style="rounded=0;whiteSpace=wrap;html=1;fontStyle=1" parent="WIyWlLk6GJQsqaUBKTNV-1" vertex="1">
                    <mxGeometry x="300" y="1635" width="199" height="32" as="geometry"/>
                </mxCell>
                <mxCell id="11" value="" style="edgeStyle=none;html=1;" parent="WIyWlLk6GJQsqaUBKTNV-1" source="9" target="32K8P8o3c46-vZ3ChS1r-49" edge="1">
                    <mxGeometry relative="1" as="geometry"/>
                </mxCell>
                <mxCell id="9" value="Tidak ada Biaya Tambahan" style="rounded=0;whiteSpace=wrap;html=1;fontStyle=1" parent="WIyWlLk6GJQsqaUBKTNV-1" vertex="1">
                    <mxGeometry x="592" y="1495.5" width="199" height="32" as="geometry"/>
                </mxCell>
            </root>
        </mxGraphModel>
    </diagram>
</mxfile>